<svg xmlns="http://www.w3.org/2000/svg" viewBox="0 0 100 100">
    <defs>
      <radialGradient id="backgroundColor" cx="0.5" cy="0.5" r="0.5">
        <stop offset="0" stop-color="rgb(16,121,236)"/>
        <stop offset="0.96" stop-color="rgb(16,121,236)"/>
        <stop offset="1" stop-color="rgb(24,111,236)"/>
      </radialGradient>
    </defs>
    <circle cx="50" cy="50" r="46" fill="url(#backgroundColor)"/>
    <circle cx="50" cy="50" r="38" fill="rgb(52,58,63)"/>
    <path fill="white" stroke="white" d="M60.71 50.97L60.71 50.97L60.71 50.97Q64.85 51.85 66.90 53.78L66.90 53.78L66.90 53.78Q69.74 56.48 69.74 60.38L69.74 60.38L69.74 60.38Q69.74 63.33 67.86 66.04L67.86 66.04L67.86 66.04Q65.99 68.75 62.72 70.00L62.72 70.00L62.72 70.00Q59.46 71.24 52.75 71.24L52.75 71.24L34.00 71.24L34.00 70.16L35.49 70.16L35.49 70.16Q37.98 70.16 39.06 68.58L39.06 68.58L39.06 68.58Q39.74 67.55 39.74 64.21L39.74 64.21L39.74 38.55L39.74 38.55Q39.74 34.86 38.89 33.89L38.89 33.89L38.89 33.89Q37.75 32.60 35.49 32.60L35.49 32.60L34.00 32.60L34.00 31.52L51.16 31.52L51.16 31.52Q55.97 31.52 58.87 32.22L58.87 32.22L58.87 32.22Q63.26 33.28 65.58 35.96L65.58 35.96L65.58 35.96Q67.89 38.64 67.89 42.12L67.89 42.12L67.89 42.12Q67.89 45.11 66.08 47.47L66.08 47.47L66.08 47.47Q64.26 49.83 60.71 50.97M45.36 34.13L45.36 49.39L45.36 49.39Q46.45 49.59 47.84 49.70L47.84 49.70L47.84 49.70Q49.23 49.80 50.90 49.80L50.90 49.80L50.90 49.80Q55.18 49.80 57.33 48.88L57.33 48.88L57.33 48.88Q59.48 47.95 60.63 46.05L60.63 46.05L60.63 46.05Q61.77 44.14 61.77 41.89L61.77 41.89L61.77 41.89Q61.77 38.40 58.93 35.94L58.93 35.94L58.93 35.94Q56.09 33.48 50.64 33.48L50.64 33.48L50.64 33.48Q47.71 33.48 45.36 34.13L45.36 34.13M45.36 52.08L45.36 68.37L45.36 68.37Q48.76 69.16 52.07 69.16L52.07 69.16L52.07 69.16Q57.38 69.16 60.16 66.78L60.16 66.78L60.16 66.78Q62.94 64.39 62.94 60.87L62.94 60.87L62.94 60.87Q62.94 58.56 61.68 56.42L61.68 56.42L61.68 56.42Q60.42 54.28 57.58 53.05L57.58 53.05L57.58 53.05Q54.74 51.82 50.55 51.82L50.55 51.82L50.55 51.82Q48.73 51.82 47.44 51.88L47.44 51.88L47.44 51.88Q46.15 51.94 45.36 52.08L45.36 52.08Z"/>
</svg>